# xmcd
#
# Track frame offsets:
#	150
#	8840
#	31175
#	46257
#	66222
#	86047
#	102532
#	116745
#	136047
#	154235
#	167975
#	185505
#	202632
#	226022
#
# Disc length: 3154 seconds
#
# Revision: 1
# Processed by: cddbd v1.4PL0 Copyright (c) Steve Scherf et al.
# Submitted via: audiograbber 1.80
#
DISCID=ae0c500e
DTITLE=Black Bear Skiffle Company - Bärenstark
DYEAR=1900
DGENRE=
TTITLE0=Freunde
TTITLE1=Ich lasse meinen Körper scharz bepinseln
TTITLE2=Sally was a good old girl
TTITLE3=Ich bin der König im Affenstaat
TTITLE4=Schlachtefest bei Schmidt
TTITLE5=Puttin' on the style
TTITLE6=Wieder 'mal zu spät
TTITLE7=Mein kleiner grüner Kaktus
TTITLE8=Kriminal - Tango
TTITLE9=Oh lonesome me
TTITLE10=Mein Bruder macht im Tonfilm die Geräusche
TTITLE11=Michael row the boat ashore
TTITLE12=Mettläi
TTITLE13=Vatertag
EXTD=Typische Straßenfet-Band. Mit Holzkastenbass und Waschbrett. Aus Osterrode
EXTD=Nienstedt (Jens Fröhlich)
EXTT0=
EXTT1=
EXTT2=
EXTT3=
EXTT4=
EXTT5=
EXTT6=
EXTT7=
EXTT8=
EXTT9=
EXTT10=
EXTT11=
EXTT12=
EXTT13=
PLAYORDER=
